<svg width="34" height="35" viewBox="0 0 34 35" fill="none" xmlns="http://www.w3.org/2000/svg">
<rect width="34" height="35" fill="#1E1E1E"/>
<g id="Desktop - 1" clip-path="url(#clip0_0_1)">
<rect width="1440" height="2421" transform="translate(-1084 -21)" fill="white"/>
<g id="Frame 2">
<g id="search 2" clip-path="url(#clip1_0_1)">
<path id="Vector" d="M24.9517 22.6276C27.0093 19.7373 27.9309 16.1537 27.5321 12.5939C27.1333 9.03408 25.4435 5.76056 22.8007 3.42822C20.158 1.09589 16.7572 -0.123239 13.2787 0.0147336C9.80029 0.152706 6.50072 1.63761 4.04015 4.17236C1.57958 6.70712 0.139462 10.1048 0.00792076 13.6856C-0.123621 17.2665 1.06311 20.7664 3.3307 23.4852C5.59828 26.204 8.77949 27.9412 12.2379 28.3492C15.6963 28.7572 19.1768 27.806 21.9831 25.6858H21.981C22.0447 25.7733 22.1127 25.8564 22.1892 25.9373L30.3705 34.3592C30.7689 34.7697 31.3094 35.0004 31.8731 35.0006C32.4368 35.0008 32.9775 34.7705 33.3763 34.3603C33.775 33.9501 33.9991 33.3937 33.9993 32.8134C33.9995 32.2331 33.7758 31.6765 33.3773 31.2661L25.1961 22.8442C25.1201 22.765 25.0384 22.6941 24.9517 22.6276ZM25.5 14.2189C25.5 15.7988 25.1976 17.3633 24.6103 18.823C24.0229 20.2827 23.1621 21.6091 22.0768 22.7263C20.9915 23.8435 19.7031 24.7297 18.2851 25.3343C16.8671 25.9389 15.3473 26.2501 13.8125 26.2501C12.2776 26.2501 10.7578 25.9389 9.33984 25.3343C7.92185 24.7297 6.63343 23.8435 5.54814 22.7263C4.46286 21.6091 3.60196 20.2827 3.01461 18.823C2.42726 17.3633 2.12495 15.7988 2.12495 14.2189C2.12495 11.028 3.35631 7.9678 5.54814 5.7115C7.73998 3.4552 10.7127 2.18763 13.8125 2.18763C16.9122 2.18763 19.8849 3.4552 22.0768 5.7115C24.2686 7.9678 25.5 11.028 25.5 14.2189Z" fill="#015DA0"/>
</g>
</g>
</g>
<defs>
<clipPath id="clip0_0_1">
<rect width="1440" height="2421" fill="white" transform="translate(-1084 -21)"/>
</clipPath>
<clipPath id="clip1_0_1">
<rect width="34" height="35" fill="white"/>
</clipPath>
</defs>
</svg>
